<?xml version="1.0" encoding="UTF-8"?>
<svg width="17px" height="11px" viewBox="0 0 17 11" version="1.1" xmlns="http://www.w3.org/2000/svg" xmlns:xlink="http://www.w3.org/1999/xlink">
    <!-- Generator: Sketch 56.2 (81672) - https://sketch.com -->
    <title>arrow-btn-r</title>
    <desc>Created with Sketch.</desc>
    <g id="pages" stroke="none" stroke-width="1" fill="none" fill-rule="evenodd">
        <g id="aventin-career" transform="translate(-1168.000000, -2091.000000)" fill="#CA1836" fill-rule="nonzero">
            <g id="vacancies" transform="translate(180.000000, 1247.000000)">
                <g id="7" transform="translate(0.000000, 801.000000)">
                    <g id="btn" transform="translate(850.000000, 23.000000)">
                        <path d="M153.989739,24.9744297 L149.165761,20.2176665 C148.871438,19.9274445 148.394105,19.9274445 148.099782,20.2176665 C147.805399,20.507948 147.805399,20.9785108 148.099782,21.2687923 L151.637024,24.7567483 L138.753747,24.7567483 C138.337498,24.7567483 138,25.0895434 138,25.5 C138,25.9103823 138.337498,26.2432368 138.753747,26.2432368 L151.637024,26.2432368 L148.099903,29.7311929 C147.805519,30.0214744 147.805519,30.4920372 148.099903,30.7823186 C148.247034,30.9273404 148.439993,31 148.632892,31 C148.825791,31 149.01869,30.9273404 149.165881,30.7823186 L153.989739,26.0255554 C154.284122,25.735274 154.284122,25.2647112 153.989739,24.9744297 Z" id="arrow-btn-r"></path>
                    </g>
                </g>
            </g>
        </g>
    </g>
</svg>