<?xml version="1.0" encoding="UTF-8"?>
<svg width="70px" height="70px" viewBox="0 0 70 70" version="1.1" xmlns="http://www.w3.org/2000/svg" xmlns:xlink="http://www.w3.org/1999/xlink">
    <!-- Generator: Sketch 56.2 (81672) - https://sketch.com -->
    <title>teamwork</title>
    <desc>Created with Sketch.</desc>
    <g id="pages" stroke="none" stroke-width="1" fill="none" fill-rule="evenodd">
        <g id="aventin-career" transform="translate(-967.000000, -698.000000)">
            <g id="values" transform="translate(180.000000, 524.000000)">
                <g id="8" transform="translate(787.000000, 174.000000)">
                    <g id="teamwork">
                        <g id="support" transform="translate(10.000000, 12.000000)" fill="#2D42AB" fill-rule="nonzero">
                            <path d="M49.61423,32.4426901 L47.2351852,30.0830409 C46.8528265,29.7038012 46.2356725,29.7064327 45.8565302,30.088694 C45.4772904,30.4709552 45.479922,31.0882066 45.8621832,31.4673489 L48.2411306,33.8269981 C48.4311891,34.0155945 48.6794347,34.1097466 48.9275828,34.1097466 C49.1783626,34.1097466 49.4291423,34.0135478 49.6196881,33.821345 C49.9990253,33.4390838 49.9964912,32.8218324 49.61423,32.4426901 Z" id="Path"></path>
                            <path d="M44.8111111,27.6687135 C44.4304094,27.2880117 43.8133528,27.2880117 43.4324561,27.6687135 L43.4307992,27.6703704 C43.0500975,28.0510721 43.0509747,28.6675439 43.4316764,29.0482456 C43.6217349,29.2384016 43.8711501,29.3334308 44.1204678,29.3334308 C44.3703704,29.3334308 44.6204678,29.2380117 44.8110136,29.0474659 C45.1917154,28.6667641 45.1917154,28.0495127 44.8111111,27.6687135 Z" id="Path"></path>
                            <path d="M36.5002924,32.1637427 L45.9572125,22.7069201 C47.3894737,21.2745614 47.3894737,18.9439571 45.957115,17.5115984 C45.4520468,17.0065302 44.8351852,16.6804094 44.1854776,16.5315789 C44.4082846,16.0526316 44.5262183,15.5269981 44.5262183,14.9830409 C44.5262183,14.0017544 44.1440546,13.0792398 43.4502924,12.3854776 C42.9061404,11.8412281 42.2210526,11.4897661 41.4774854,11.3631579 C41.8961014,10.0877193 41.6001949,8.62699805 40.5878168,7.61471735 C40.0311891,7.05818713 39.3388889,6.71900585 38.6163743,6.59502924 C38.7374269,6.22768031 38.8012671,5.83976608 38.8012671,5.4417154 C38.8012671,4.46042885 38.4191033,3.53791423 37.7253411,2.84415205 C37.0314815,2.15038986 36.1089669,1.76822612 35.1277778,1.76822612 C34.5046784,1.76822612 33.9055556,1.92280702 33.3732943,2.21306043 L33.2792398,2.1119883 C32.0568226,0.79834308 30.3265107,0.0450292398 28.5322612,0.0450292398 L20.8772904,0.0450292398 C20.3389864,0.0450292398 19.9024366,0.481578947 19.9024366,1.01988304 L19.9024366,2.29824561 C19.9024366,2.80984405 19.9889864,3.30789474 20.1544834,3.77621832 C19.7135478,3.59307992 19.2364522,3.49688109 18.7446394,3.49688109 C17.7633528,3.49688109 16.8408382,3.87904483 16.1469786,4.57280702 C15.1341131,5.58567251 14.838499,7.04746589 15.2580897,8.32329435 C14.5349903,8.44697856 13.8417154,8.78635478 13.2846004,9.34337232 C12.5908382,10.037232 12.2086745,10.9597466 12.2086745,11.9409357 C12.2086745,12.3382066 12.2723197,12.7255361 12.392885,13.0921053 C11.6501949,13.2191033 10.9657895,13.5703704 10.4221248,14.1141326 C9.30350877,15.2327485 9.058577,16.8994152 9.68732943,18.2579922 C9.02153996,18.4101365 8.41003899,18.7454191 7.91510721,19.2402534 C6.482846,20.6725146 6.482846,23.0031189 7.91510721,24.4354776 L9.85994152,26.3802144 L0.285477583,35.9544834 C-0.0952241715,36.3351852 -0.0952241715,36.9524366 0.285477583,37.3332359 C0.47582846,37.5234893 0.725341131,37.6188109 0.974756335,37.6188109 C1.22417154,37.6188109 1.47368421,37.5235867 1.66403509,37.3332359 L11.3308967,27.6663743 C11.8781676,27.978655 12.4992203,28.1457115 13.1464912,28.1457115 C14.1276803,28.1457115 15.0501949,27.7635478 15.7440546,27.0696881 C16.4978558,26.3159844 16.854386,25.3133528 16.8147173,24.3238791 C16.8641326,24.3259259 16.9135478,24.3273879 16.962963,24.3273879 C17.9035088,24.3272904 18.8445419,23.9692008 19.5605263,23.2532164 C20.2542885,22.5593567 20.6364522,21.6368421 20.6364522,20.655653 C20.6364522,20.6060429 20.6347953,20.5567251 20.632846,20.5074074 C20.6816764,20.5093567 20.7305068,20.5109162 20.7794347,20.5109162 C21.720078,20.5109162 22.6609162,20.1528265 23.3769981,19.4367446 C24.0707602,18.742885 24.452924,17.8203704 24.452924,16.8391813 C24.452924,16.7895712 24.4512671,16.7402534 24.4493177,16.6909357 C24.4981481,16.692885 24.5469786,16.6944444 24.5959064,16.6944444 C25.5366472,16.6944444 26.4773879,16.3363548 27.1934698,15.6202729 C28.5392788,14.2744639 28.6202729,12.13577 27.4371345,10.694152 L33.9082846,4.22300195 C34.2339181,3.89727096 34.6666667,3.71803119 35.127193,3.71803119 C35.5877193,3.71803119 36.0205653,3.89727096 36.3461988,4.22300195 C36.6718324,4.54863548 36.8510721,4.98138402 36.8510721,5.44191033 C36.8510721,5.90233918 36.6718324,6.33528265 36.3461014,6.66081871 L35.3920078,7.61491228 L31.9302144,11.0767057 C31.5495127,11.4574074 31.5495127,12.0746589 31.9302144,12.4554581 C32.1205653,12.6457115 32.370078,12.7410331 32.6194932,12.7410331 C32.8689084,12.7410331 33.1184211,12.645809 33.3087719,12.4554581 L36.7705653,8.99366472 C37.4425926,8.32153996 38.5362573,8.3214425 39.2084795,8.99356725 C39.8806043,9.66578947 39.8806043,10.7593567 39.2084795,11.4315789 L38.2542885,12.38577 L35.7466862,14.8933723 C35.3659844,15.2740741 35.3659844,15.8913255 35.7466862,16.2721248 C35.937037,16.4623782 36.1865497,16.5576998 36.4359649,16.5576998 C36.6853801,16.5576998 36.9348928,16.4624756 37.1252437,16.2721248 L39.632846,13.7645224 C39.9584795,13.4387914 40.3913255,13.2595517 40.8517544,13.2595517 C41.3122807,13.2595517 41.7451267,13.4387914 42.0707602,13.7645224 C42.3963938,14.0901559 42.5756335,14.5229045 42.5756335,14.9834308 C42.5756335,15.4438596 42.3963938,15.8768031 42.0706628,16.2023392 L40.7610136,17.5119883 L39.5630604,18.7099415 C39.1823587,19.0906433 39.1823587,19.7078947 39.5630604,20.088694 C39.7534113,20.2789474 40.002924,20.374269 40.2523392,20.374269 C40.5017544,20.374269 40.7512671,20.2790448 40.9416179,20.088694 L42.1404483,18.8898635 C42.8126706,18.2188109 43.905653,18.2189084 44.5774854,18.8907407 C45.2497076,19.5628655 45.2497076,20.6565302 44.5774854,21.3287524 L35.1205653,30.785575 C32.7459064,33.1603314 29.5898635,34.5350877 26.2338207,34.6569201 C25.9871345,34.6658869 25.7528265,34.7681287 25.5785575,34.9431774 L16.8424951,43.7115984 C16.4624756,44.0929825 16.4635478,44.7102339 16.8450292,45.0902534 C17.0351852,45.2797271 17.2841131,45.3745614 17.5330409,45.3745614 C17.7830409,45.3745614 18.0332359,45.2789474 18.2235867,45.0877193 L24.6492203,38.6384016 C26.281384,39.6854776 28.2008772,40.1833333 30.1526316,40.0542885 L35.1816764,45.0834308 C35.3720273,45.2736842 35.62154,45.3690058 35.8709552,45.3690058 C36.1204678,45.3690058 36.369883,45.2737817 36.5602339,45.0834308 C36.9409357,44.702729 36.9409357,44.0854776 36.5602339,43.7046784 L31.2132554,38.357115 C31.0108187,38.1547758 30.7295322,38.0513645 30.4442495,38.0747563 L30.1351852,38.1000975 C28.708577,38.2170565 27.2984405,37.9045809 26.0672515,37.2146199 L26.6937622,36.5858674 C30.3990253,36.3573099 33.8680312,34.7961014 36.5002924,32.1637427 Z M14.3654971,25.6911306 C14.0398635,26.0168616 13.6069201,26.1961014 13.1465887,26.1961014 C12.6860624,26.1961014 12.2532164,26.0168616 11.9276803,25.6911306 L9.29356725,23.057115 C8.6214425,22.3849903 8.6214425,21.2913255 9.29356725,20.6191033 C9.61920078,20.2933723 10.0521442,20.1141326 10.5125731,20.1141326 C10.9730019,20.1141326 11.4059454,20.2933723 11.7314815,20.6191033 L14.3655945,23.2531189 C15.0376218,23.9252437 15.0376218,25.0189084 14.3654971,25.6911306 Z M18.1821637,21.8744639 C17.5099415,22.5465887 16.4160819,22.5465887 15.744152,21.8744639 L13.110039,19.2403509 L11.8002924,17.9306043 C11.1281676,17.2584795 11.1281676,16.1648148 11.8002924,15.4926901 C12.1259259,15.1669591 12.5588694,14.9877193 13.0192008,14.9877193 C13.4797271,14.9877193 13.9125731,15.1669591 14.2381092,15.4926901 L18.1818713,19.4364522 C18.1818713,19.4364522 18.1818713,19.4364522 18.1819688,19.4364522 C18.5076998,19.7621832 18.6869396,20.1950292 18.6869396,20.6554581 C18.6869396,21.1158869 18.5076998,21.5488304 18.1821637,21.8744639 Z M21.9986355,18.0578947 C21.3264133,18.729922 20.2326511,18.7300195 19.5606238,18.0578947 L14.6626706,13.1599415 C14.337037,12.834308 14.1577973,12.4015595 14.1577973,11.9410331 C14.1577973,11.4806043 14.337037,11.0476608 14.662768,10.7221248 C14.9988304,10.3860624 15.4403509,10.2180312 15.8816764,10.2180312 C16.322807,10.2180312 16.7638402,10.3858674 17.0998051,10.721345 L19.3321637,12.9537037 L21.9984405,15.6199805 L21.998538,15.6199805 C22.3240741,15.945614 22.503314,16.3783626 22.503314,16.8388889 C22.5035088,17.2994152 22.324269,17.7323587 21.9986355,18.0578947 Z M25.8152047,14.2413255 C25.1430799,14.9134503 24.0494152,14.9134503 23.3772904,14.2413255 L18.4793372,9.34337232 C18.4788499,9.34288499 18.4782651,9.34239766 18.4776803,9.34181287 L17.5251462,8.38927875 C16.8530214,7.71705653 16.8530214,6.62348928 17.5251462,5.95126706 C17.8612086,5.61510721 18.302729,5.44707602 18.744152,5.44707602 C19.185575,5.44707602 19.6270955,5.61510721 19.9630604,5.95126706 L25.8150097,11.8032164 C26.1407407,12.1288499 26.3199805,12.5616959 26.3199805,13.0221248 C26.320078,13.4827485 26.1409357,13.9157895 25.8152047,14.2413255 Z M26.07154,9.30253411 L23.3939571,6.62495127 C23.6975634,6.68976608 24.0097466,6.72417154 24.3274854,6.72407407 C24.3346004,6.72407407 24.3418129,6.72407407 24.3490253,6.72407407 L27.024269,6.71150097 C27.5625731,6.70896686 27.997076,6.27046784 27.9945419,5.73206628 C27.9920078,5.19522417 27.5560429,4.76179337 27.0197856,4.76179337 C27.0182261,4.76179337 27.0166667,4.76179337 27.0151072,4.76179337 L24.3398635,4.77436647 C24.33577,4.77436647 24.3318713,4.77436647 24.3277778,4.77436647 C23.668616,4.77436647 23.0486355,4.51851852 22.5811891,4.05331384 C22.1108187,3.58508772 21.8518519,2.96189084 21.8518519,2.29814815 L21.8518519,1.99463938 L28.5319688,1.99463938 C29.7868421,1.99463938 30.9968811,2.5214425 31.8518519,3.44015595 L31.8915205,3.48274854 L26.07154,9.30253411 Z" id="Shape"></path>
                        </g>
                        <rect id="Rectangle" fill="#CA1836" x="50" y="0" width="20" height="1" rx="0.5"></rect>
                        <rect id="Rectangle" fill="#CA1836" transform="translate(0.500000, 60.000000) rotate(90.000000) translate(-0.500000, -60.000000) " x="-9.5" y="59.5" width="20" height="1" rx="0.5"></rect>
                        <rect id="Rectangle" fill="#CA1836" transform="translate(10.500000, 69.500000) rotate(90.000000) translate(-10.500000, -69.500000) " x="10" y="59.5" width="1" height="20" rx="0.5"></rect>
                        <rect id="Rectangle" fill="#CA1836" x="69" y="0" width="1" height="20" rx="0.5"></rect>
                    </g>
                </g>
            </g>
        </g>
    </g>
</svg>