<?xml version="1.0" encoding="UTF-8"?>
<svg width="70px" height="70px" viewBox="0 0 70 70" version="1.1" xmlns="http://www.w3.org/2000/svg" xmlns:xlink="http://www.w3.org/1999/xlink">
    <!-- Generator: Sketch 56.2 (81672) - https://sketch.com -->
    <title>training</title>
    <desc>Created with Sketch.</desc>
    <g id="pages" stroke="none" stroke-width="1" fill="none" fill-rule="evenodd">
        <g id="aventin-career" transform="translate(-180.000000, -803.000000)">
            <g id="values" transform="translate(180.000000, 524.000000)">
                <g id="3" transform="translate(0.000000, 279.000000)">
                    <g id="training">
                        <g transform="translate(10.000000, 10.000000)" fill="#2D42AB" fill-rule="nonzero">
                            <path d="M5,43.3333333 C5,43.7935384 5.37312823,44.1666667 5.83333333,44.1666667 L20.8333333,44.1666667 C21.2935384,44.1666667 21.6666667,43.7935384 21.6666667,43.3333333 L21.6666667,39.1833496 C21.6621907,37.3242188 20.431722,35.690511 18.6458333,35.1733398 L15.8333333,34.3701172 L15.8333333,33.3117676 C16.8786621,32.5313314 17.4963379,31.3045248 17.5,30 L17.5,29.1666667 C17.9602051,29.1666667 18.3333333,28.7935384 18.3333333,28.3333333 L18.3333333,27.5 C18.3333333,24.7387696 16.0945638,22.5 13.3333333,22.5 C10.5721029,22.5 8.33333333,24.7387696 8.33333333,27.5 L8.33333333,28.3333333 C8.33333333,28.7935384 8.70646156,29.1666667 9.16666667,29.1666667 L9.16666667,30 C9.17032875,31.3045248 9.78800458,32.5313314 10.8333333,33.3117676 L10.8333333,34.3701172 L8.02164708,35.1733398 C6.23535156,35.6901042 5.00406896,37.3238119 5,39.1833496 L5,43.3333333 Z M13.3333333,24.1666667 C15.1656088,24.1666667 16.6544596,25.645345 16.6666667,27.4776204 C16.4274089,27.4194335 16.2259928,27.2587077 16.1165365,27.0381673 L15.7458496,26.295166 C15.6392416,26.0807292 15.4455567,25.9228516 15.2144369,25.8614095 C14.9829102,25.7995605 14.736735,25.8406575 14.5373535,25.9733073 L13.297526,26.8001302 C12.6131185,27.2570801 11.8086751,27.5008137 10.9859213,27.500002 L10,27.500002 C10,25.6591797 11.492513,24.1666667 13.3333333,24.1666667 Z M10.9859213,29.1666667 C12.1378581,29.1678874 13.2637532,28.8264974 14.2215983,28.186849 L14.6781412,27.882487 C14.9405925,28.3455404 15.3458658,28.7109375 15.8333333,28.9241536 L15.8333333,30 C15.8333333,31.3806152 14.7139485,32.5 13.3333333,32.5 C11.9527181,32.5 10.8333333,31.3806152 10.8333333,30 L10.8333333,29.1666667 L10.9859213,29.1666667 Z M13.3333333,34.1666667 C13.6132812,34.1670735 13.8924154,34.1389974 14.1666667,34.083252 L14.1666667,35 C14.169515,35.2372233 14.2740885,35.4618327 14.4543457,35.616862 L13.3333333,36.4583333 L12.2123209,35.616862 C12.3925781,35.4618327 12.4971517,35.2372233 12.5,35 L12.5,34.083252 C12.7742513,34.1389974 13.0533854,34.1670735 13.3333333,34.1666667 L13.3333333,34.1666667 Z M6.66666667,39.1833496 C6.66870115,38.06722 7.40722656,37.0865885 8.47900396,36.7757161 L10.291748,36.2593588 L12.833252,38.166504 C13.1294759,38.3890787 13.5371907,38.3890787 13.8334147,38.166504 L16.3749186,36.2593588 L18.1884766,36.77653 C19.259847,37.0869954 19.9979655,38.067627 20,39.1833496 L20,42.5 L18.3333333,42.5 L18.3333333,39.1666667 L16.6666667,39.1666667 L16.6666667,42.5 L10,42.5 L10,39.1666667 L8.33333333,39.1666667 L8.33333333,42.5 L6.66666667,42.5 L6.66666667,39.1833496 Z" id="Shape"></path>
                            <path d="M44.1666667,39.1666667 C45.5472819,39.1666667 46.6666667,38.0472819 46.6666667,36.6666667 L46.6666667,26.6666667 C46.6666667,25.2860515 45.5472819,24.1666667 44.1666667,24.1666667 L27.5,24.1666667 C26.1193848,24.1666667 25,25.2860515 25,26.6666667 L25,36.6666667 C25,38.0472819 26.1193848,39.1666667 27.5,39.1666667 L33.3333333,39.1666667 L33.3333333,42.5 L31.6666667,42.5 L31.6666667,44.1666667 L40,44.1666667 L40,42.5 L38.3333333,42.5 L38.3333333,39.1666667 L44.1666667,39.1666667 Z M27.5,37.5 C27.0397949,37.5 26.6666667,37.1268718 26.6666667,36.6666667 L26.6666667,26.6666667 C26.6666667,26.2064616 27.0397949,25.8333333 27.5,25.8333333 L44.1666667,25.8333333 C44.6268718,25.8333333 45,26.2064616 45,26.6666667 L45,36.6666667 C45,37.1268718 44.6268718,37.5 44.1666667,37.5 L38.3333333,37.5 L38.3333333,33.3333333 C38.3333333,32.8731282 37.9602051,32.5 37.5,32.5 L34.1666667,32.5 C33.7064616,32.5 33.3333333,32.8731282 33.3333333,33.3333333 L33.3333333,37.5 L27.5,37.5 Z M35,42.5 L35,34.1666667 L36.6666667,34.1666667 L36.6666667,42.5 L35,42.5 Z" id="Shape"></path>
                            <path d="M16.6666667,16.6666667 L21.6666667,16.6666667 L21.6666667,20.8333333 C21.6666667,21.1702474 21.8697103,21.4742025 22.1809896,21.6031901 C22.4922689,21.7321777 22.8507488,21.6605631 23.0891927,21.422526 L27.8450521,16.6666667 L38.3333333,16.6666667 C39.7139485,16.6666667 40.8333333,15.5472819 40.8333333,14.1666667 L40.8333333,2.5 C40.8333333,1.11938479 39.7139485,0 38.3333333,0 L16.6666667,0 C15.2860515,0 14.1666667,1.11938479 14.1666667,2.5 L14.1666667,14.1666667 C14.1666667,15.5472819 15.2860515,16.6666667 16.6666667,16.6666667 Z M15.8333333,2.5 C15.8333333,2.0397949 16.2064616,1.66666667 16.6666667,1.66666667 L38.3333333,1.66666667 C38.7935384,1.66666667 39.1666667,2.0397949 39.1666667,2.5 L39.1666667,14.1666667 C39.1666667,14.6268718 38.7935384,15 38.3333333,15 L27.5,15 C27.2790527,15 27.0670573,15.0878906 26.9108073,15.2441406 L23.3333333,18.8216146 L23.3333333,15.8333333 C23.3333333,15.3731282 22.9602051,15 22.5,15 L16.6666667,15 C16.2064616,15 15.8333333,14.6268718 15.8333333,14.1666667 L15.8333333,2.5 Z" id="Shape"></path>
                            <path d="M50,45 L0,45 L0,46.6666667 L1.66666667,46.6666667 L1.66666667,49.1666667 C1.66666667,49.6268718 2.0397949,50 2.5,50 L47.5,50 C47.9602051,50 48.3333333,49.6268718 48.3333333,49.1666667 L48.3333333,46.6666667 L50,46.6666667 L50,45 Z M46.6666667,48.3333333 L3.33333333,48.3333333 L3.33333333,46.6666667 L46.6666667,46.6666667 L46.6666667,48.3333333 Z" id="Shape"></path>
                            <polygon id="Path" points="20 4.16666667 35 4.16666667 35 5.83333333 20 5.83333333"></polygon>
                            <polygon id="Path" points="20 7.5 35 7.5 35 9.16666667 20 9.16666667"></polygon>
                            <polygon id="Path" points="20 10.8333333 35 10.8333333 35 12.5 20 12.5"></polygon>
                            <path d="M0.833333333,28.3333333 L5,28.3333333 L5,26.6666667 L1.66666667,26.6666667 L1.66666667,8.33333333 L5.83333333,8.33333333 L5.83333333,6.66666667 L0.833333333,6.66666667 C0.373128229,6.66666667 0,7.0397949 0,7.5 L0,27.5 C0,27.9602051 0.373128229,28.3333333 0.833333333,28.3333333 Z" id="Path"></path>
                            <polygon id="Path" points="7.5 6.66666667 9.16666667 6.66666667 9.16666667 8.33333333 7.5 8.33333333"></polygon>
                            <polygon id="Path" points="10.8333333 6.66666667 12.5 6.66666667 12.5 8.33333333 10.8333333 8.33333333"></polygon>
                            <path d="M45,15.8333333 L46.6666667,15.8333333 L46.6666667,7.5 C46.6666667,7.0397949 46.2935384,6.66666667 45.8333333,6.66666667 L42.5,6.66666667 L42.5,8.33333333 L45,8.33333333 L45,15.8333333 Z" id="Path"></path>
                            <polygon id="Path" points="45 17.5 46.6666667 17.5 46.6666667 19.1666667 45 19.1666667"></polygon>
                            <polygon id="Path" points="45 20.8333333 46.6666667 20.8333333 46.6666667 22.5 45 22.5"></polygon>
                        </g>
                        <rect id="Rectangle" fill="#CA1836" x="50" y="0" width="20" height="1" rx="0.5"></rect>
                        <rect id="Rectangle" fill="#CA1836" transform="translate(0.500000, 60.000000) rotate(90.000000) translate(-0.500000, -60.000000) " x="-9.5" y="59.5" width="20" height="1" rx="0.5"></rect>
                        <rect id="Rectangle" fill="#CA1836" transform="translate(10.500000, 69.500000) rotate(90.000000) translate(-10.500000, -69.500000) " x="10" y="59.5" width="1" height="20" rx="0.5"></rect>
                        <rect id="Rectangle" fill="#CA1836" x="69" y="0" width="1" height="20" rx="0.5"></rect>
                    </g>
                </g>
            </g>
        </g>
    </g>
</svg>